<svg width="200" height="200" viewBox="0 0 200 200" fill="none" xmlns="http://www.w3.org/2000/svg">
<path d="M25 18.75C25 17.0924 25.6585 15.5027 26.8306 14.3306C28.0027 13.1585 29.5924 12.5 31.25 12.5H168.75C170.408 12.5 171.997 13.1585 173.169 14.3306C174.342 15.5027 175 17.0924 175 18.75C175 20.4076 174.342 21.9973 173.169 23.1694C171.997 24.3415 170.408 25 168.75 25H156.25V37.5C156.253 48.1129 153.253 58.51 147.597 67.4903C141.941 76.4706 133.86 83.6676 124.287 88.25C120.662 89.9875 118.75 92.9625 118.75 95.625V104.375C118.75 107.038 120.675 110.012 124.287 111.75C133.86 116.332 141.941 123.529 147.597 132.51C153.253 141.49 156.253 151.887 156.25 162.5V175H168.75C170.408 175 171.997 175.658 173.169 176.831C174.342 178.003 175 179.592 175 181.25C175 182.908 174.342 184.497 173.169 185.669C171.997 186.842 170.408 187.5 168.75 187.5H31.25C29.5924 187.5 28.0027 186.842 26.8306 185.669C25.6585 184.497 25 182.908 25 181.25C25 179.592 25.6585 178.003 26.8306 176.831C28.0027 175.658 29.5924 175 31.25 175H43.75V162.5C43.7474 151.887 46.7473 141.49 52.4031 132.51C58.0589 123.529 66.1399 116.332 75.7125 111.75C79.3375 110.012 81.25 107.038 81.25 104.375V95.625C81.25 92.9625 79.325 89.9875 75.7125 88.25C66.1399 83.6676 58.0589 76.4706 52.4031 67.4903C46.7473 58.51 43.7474 48.1129 43.75 37.5V25H31.25C29.5924 25 28.0027 24.3415 26.8306 23.1694C25.6585 21.9973 25 20.4076 25 18.75ZM56.25 25V37.5C56.2477 45.7552 58.5811 53.8427 62.9806 60.8279C67.3801 67.8131 73.6662 73.4111 81.1125 76.975C87.775 80.175 93.75 86.8625 93.75 95.6125V104.387C93.75 113.137 87.775 119.825 81.1125 123.025C73.6662 126.589 67.3801 132.187 62.9806 139.172C58.5811 146.157 56.2477 154.245 56.25 162.5V175H143.75V162.5C143.752 154.245 141.419 146.157 137.019 139.172C132.62 132.187 126.334 126.589 118.887 123.025C112.225 119.825 106.25 113.15 106.25 104.387V95.6125C106.25 86.8625 112.225 80.175 118.887 76.975C126.334 73.4111 132.62 67.8131 137.019 60.8279C141.419 53.8427 143.752 45.7552 143.75 37.5V25H56.25Z" fill="white"/>
</svg>
